<?xml version="1.0" encoding="UTF-8"?>
<!-- Generated by Pixelmator Pro 3.5.6 -->
<svg width="146" height="146" viewBox="0 0 146 146" xmlns="http://www.w3.org/2000/svg">
    <path id="Ellipse" fill="none" stroke="#000000" stroke-width="35" d="M 77.984375 17.734375 L 83.484375 18.5 L 88.765625 19.796875 L 94.015625 21.640625 L 98.84375 23.890625 L 103.46875 26.625 L 107.78125 29.765625 L 111.671875 33.21875 L 116.28125 38.296875 L 119.359375 42.515625 L 122.09375 47.140625 L 124.34375 51.96875 L 126.1875 57.21875 L 127.484375 62.5 L 128.25 68 L 128.484375 73 L 128.25 77.984375 L 127.484375 83.484375 L 126.1875 88.765625 L 124.34375 94.015625 L 122.09375 98.84375 L 119.359375 103.46875 L 116.28125 107.6875 L 111.671875 112.765625 L 107.78125 116.21875 L 103.46875 119.359375 L 98.84375 122.09375 L 94.015625 124.34375 L 88.765625 126.1875 L 83.484375 127.484375 L 77.984375 128.25 L 73 128.484375 L 68 128.25 L 62.5 127.484375 L 57.21875 126.1875 L 51.96875 124.34375 L 47.140625 122.09375 L 42.515625 119.359375 L 38.296875 116.28125 L 33.21875 111.671875 L 29.765625 107.78125 L 26.625 103.46875 L 23.890625 98.84375 L 21.640625 94.015625 L 19.796875 88.765625 L 18.5 83.484375 L 17.734375 77.984375 L 17.515625 73 L 17.734375 68 L 18.5 62.5 L 19.796875 57.21875 L 21.640625 51.96875 L 23.890625 47.140625 L 26.625 42.515625 L 29.703125 38.296875 L 34.3125 33.21875 L 38.203125 29.765625 L 42.515625 26.625 L 47.140625 23.890625 L 51.96875 21.640625 L 57.21875 19.796875 L 62.5 18.5 L 68 17.734375 L 73 17.515625 Z"/>
</svg>
